REM DIRINDEX 1\4,1\2\5,1\2\6,1\3\7,1\3\8
REM DIRNAME cjc124,folder01,folder02,folder03,folder04,folder05,folder06,folder07
TITLE ""
FILE "050_Day25_Check3_Sentences.mp3" MP3
  TRACK 01 AUDIO
    TITLE "0:"
    INDEX 01 00:00:00
  TRACK 02 AUDIO
    TITLE "4:cjc124_1620"
    INDEX 01 00:00:25
  TRACK 03 AUDIO
    TITLE "0:"
    INDEX 01 00:01:54
  TRACK 04 AUDIO
    TITLE "7:cjc124_1621"
    INDEX 01 00:02:30
  TRACK 05 AUDIO
    TITLE "0:"
    INDEX 01 00:04:70
  TRACK 06 AUDIO
    TITLE "8:cjc124_1622"
    INDEX 01 00:05:10
  TRACK 07 AUDIO
    TITLE "0:"
    INDEX 01 00:08:07
  TRACK 08 AUDIO
    TITLE "7:cjc124_1623"
    INDEX 01 00:08:44
  TRACK 09 AUDIO
    TITLE "0:"
    INDEX 01 00:10:55
  TRACK 10 AUDIO
    TITLE "8:cjc124_1624"
    INDEX 01 00:10:72
  TRACK 11 AUDIO
    TITLE "0:"
    INDEX 01 00:13:28
  TRACK 12 AUDIO
    TITLE "7:cjc124_1625"
    INDEX 01 00:13:65
  TRACK 13 AUDIO
    TITLE "0:"
    INDEX 01 00:17:21
  TRACK 14 AUDIO
    TITLE "8:cjc124_1626"
    INDEX 01 00:17:41
  TRACK 15 AUDIO
    TITLE "0:"
    INDEX 01 00:21:47
  TRACK 16 AUDIO
    TITLE "7:cjc124_1627"
    INDEX 01 00:22:05
  TRACK 17 AUDIO
    TITLE "0:"
    INDEX 01 00:25:01
  TRACK 18 AUDIO
    TITLE "8:cjc124_1628"
    INDEX 01 00:25:17
  TRACK 19 AUDIO
    TITLE "0:"
    INDEX 01 00:28:06
  TRACK 20 AUDIO
    TITLE "7:cjc124_1629"
    INDEX 01 00:28:53
  TRACK 21 AUDIO
    TITLE "0:"
    INDEX 01 00:32:17
  TRACK 22 AUDIO
    TITLE "8:cjc124_1630"
    INDEX 01 00:32:29
  TRACK 23 AUDIO
    TITLE "0:"
    INDEX 01 00:37:20
  TRACK 24 AUDIO
    TITLE "7:cjc124_1631"
    INDEX 01 00:37:56
  TRACK 25 AUDIO
    TITLE "0:"
    INDEX 01 00:41:55
  TRACK 26 AUDIO
    TITLE "8:cjc124_1632"
    INDEX 01 00:41:71
  TRACK 27 AUDIO
    TITLE "0:"
    INDEX 01 00:46:23
  TRACK 28 AUDIO
    TITLE "7:cjc124_1633"
    INDEX 01 00:46:60
  TRACK 29 AUDIO
    TITLE "0:"
    INDEX 01 00:50:74
  TRACK 30 AUDIO
    TITLE "8:cjc124_1634"
    INDEX 01 00:51:15
  TRACK 31 AUDIO
    TITLE "0:"
    INDEX 01 00:54:54
  TRACK 32 AUDIO
    TITLE "7:cjc124_1635"
    INDEX 01 00:55:16
  TRACK 33 AUDIO
    TITLE "0:"
    INDEX 01 00:58:03
  TRACK 34 AUDIO
    TITLE "8:cjc124_1636"
    INDEX 01 00:58:20
  TRACK 35 AUDIO
    TITLE "0:"
    INDEX 01 01:01:58
  TRACK 36 AUDIO
    TITLE "7:cjc124_1637"
    INDEX 01 01:02:26
  TRACK 37 AUDIO
    TITLE "0:"
    INDEX 01 01:05:32
  TRACK 38 AUDIO
    TITLE "8:cjc124_1638"
    INDEX 01 01:05:48
  TRACK 39 AUDIO
    TITLE "0:"
    INDEX 01 01:08:17
  TRACK 40 AUDIO
    TITLE "7:cjc124_1639"
    INDEX 01 01:08:58
  TRACK 41 AUDIO
    TITLE "0:"
    INDEX 01 01:12:15
  TRACK 42 AUDIO
    TITLE "8:cjc124_1640"
    INDEX 01 01:12:36
  TRACK 43 AUDIO
    TITLE "0:"
    INDEX 01 01:15:11
  TRACK 44 AUDIO
    TITLE "7:cjc124_1641"
    INDEX 01 01:15:46
  TRACK 45 AUDIO
    TITLE "0:"
    INDEX 01 01:18:43
  TRACK 46 AUDIO
    TITLE "8:cjc124_1642"
    INDEX 01 01:18:60
  TRACK 47 AUDIO
    TITLE "0:"
    INDEX 01 01:21:27
  TRACK 48 AUDIO
    TITLE "7:cjc124_1643"
    INDEX 01 01:21:70
  TRACK 49 AUDIO
    TITLE "0:"
    INDEX 01 01:26:17
  TRACK 50 AUDIO
    TITLE "8:cjc124_1644"
    INDEX 01 01:26:36
  TRACK 51 AUDIO
    TITLE "0:"
    INDEX 01 01:29:74
  TRACK 52 AUDIO
    TITLE "7:cjc124_1645"
    INDEX 01 01:30:34
  TRACK 53 AUDIO
    TITLE "0:"
    INDEX 01 01:32:51
  TRACK 54 AUDIO
    TITLE "8:cjc124_1646"
    INDEX 01 01:32:70
  TRACK 55 AUDIO
    TITLE "0:"
    INDEX 01 01:36:27
  TRACK 56 AUDIO
    TITLE "7:cjc124_1647"
    INDEX 01 01:36:70
  TRACK 57 AUDIO
    TITLE "0:"
    INDEX 01 01:39:27
  TRACK 58 AUDIO
    TITLE "8:cjc124_1648"
    INDEX 01 01:39:43
  TRACK 59 AUDIO
    TITLE "0:"
    INDEX 01 01:41:32
  TRACK 60 AUDIO
    TITLE "7:cjc124_1649"
    INDEX 01 01:41:67
  TRACK 61 AUDIO
    TITLE "0:"
    INDEX 01 01:44:38
  TRACK 62 AUDIO
    TITLE "8:cjc124_1650"
    INDEX 01 01:44:52
  TRACK 63 AUDIO
    TITLE "0:"
    INDEX 01 01:47:07
  TRACK 64 AUDIO
    TITLE "7:cjc124_1651"
    INDEX 01 01:47:44
  TRACK 65 AUDIO
    TITLE "0:"
    INDEX 01 01:50:49
  TRACK 66 AUDIO
    TITLE "8:cjc124_1652"
    INDEX 01 01:50:74
  TRACK 67 AUDIO
    TITLE "0:"
    INDEX 01 01:54:74
